<svg xmlns="http://www.w3.org/2000/svg" width="75" height="74" viewBox="0 0 75 74">
  <g id="Group_71707" data-name="Group 71707" transform="translate(21346 284)">
    <rect id="Rectangle_9375" data-name="Rectangle 9375" width="75" height="74" rx="20" transform="translate(-21346 -284)" fill="#5ddab4"/>
    <g id="notes_2_" data-name="notes (2)" transform="translate(-21322.811 -262.551)">
      <path id="Path_20" data-name="Path 20" d="M7.046,7.127a1.3,1.3,0,0,1-1.3-1.3V1.3a1.3,1.3,0,1,1,2.592,0V5.832A1.3,1.3,0,0,1,7.046,7.127Z" transform="translate(1.11)" fill="#fff"/>
      <path id="Path_21" data-name="Path 21" d="M11.8,7.127a1.3,1.3,0,0,1-1.3-1.3V1.3a1.3,1.3,0,0,1,2.592,0V5.832A1.3,1.3,0,0,1,11.8,7.127Z" transform="translate(2.515)" fill="#fff"/>
      <path id="Path_22" data-name="Path 22" d="M16.546,7.127a1.3,1.3,0,0,1-1.3-1.3V1.3a1.3,1.3,0,1,1,2.592,0V5.832A1.3,1.3,0,0,1,16.546,7.127Z" transform="translate(3.921)" fill="#fff"/>
      <path id="Path_23" data-name="Path 23" d="M23.058,2.25H5.564A3.567,3.567,0,0,0,2,5.814V26.872a3.567,3.567,0,0,0,3.564,3.564H23.058a3.567,3.567,0,0,0,3.564-3.564V5.814A3.567,3.567,0,0,0,23.058,2.25ZM8.479,9.7h6.479a1.3,1.3,0,1,1,0,2.592H8.479a1.3,1.3,0,1,1,0-2.592ZM21.438,22.66H8.479a1.3,1.3,0,0,1,0-2.592H21.438a1.3,1.3,0,0,1,0,2.592Zm0-5.184H8.479a1.3,1.3,0,0,1,0-2.592H21.438a1.3,1.3,0,0,1,0,2.592Z" transform="translate(0 0.666)" fill="#fff"/>
    </g>
  </g>
</svg>
